<svg width="817" height="817" viewBox="0 0 817 817" fill="none" xmlns="http://www.w3.org/2000/svg">
<g opacity="0.2" clip-path="url(#clip0_1_604)">
<path d="M408.5 0L817 408.5L408.5 817L0 408.5L408.5 0Z" fill="#FFD313"/>
<path d="M817 204.25C816.995 150.081 795.472 98.1333 757.166 59.8331C718.86 21.5329 666.908 0.0177996 612.74 0.0205081C558.571 0.0232165 506.622 21.5435 468.32 59.8476C430.018 98.1516 408.5 150.102 408.5 204.271C408.5 258.439 430.018 310.389 468.32 348.693C506.622 386.997 558.571 408.518 612.74 408.521C666.908 408.523 718.86 387.008 757.166 348.708C795.472 310.408 816.995 258.46 817 204.291V204.25Z" fill="#F61710"/>
</g>
<defs>
<clipPath id="clip0_1_604">
<rect width="817" height="817" fill="white"/>
</clipPath>
</defs>
</svg>
