<svg width="485" height="485" viewBox="0 0 485 485" fill="none" xmlns="http://www.w3.org/2000/svg">
<g opacity="0.2" clip-path="url(#clip0_1_1453)">
<path d="M0 0C64.315 0 125.996 25.549 171.473 71.0266C216.951 116.504 242.5 178.185 242.5 242.5C242.5 306.815 216.951 368.496 171.473 413.973C125.996 459.451 64.315 485 0 485L0 242.5V0Z" fill="#FFD313"/>
<path d="M0 485C0 453.154 6.27245 421.621 18.4592 392.199C30.646 362.778 48.5084 336.045 71.0266 313.527C116.504 268.049 178.185 242.5 242.5 242.5C306.815 242.5 368.496 268.049 413.973 313.527C459.451 359.004 485 420.685 485 485H242.5H0Z" fill="#0E448C"/>
</g>
<defs>
<clipPath id="clip0_1_1453">
<rect width="485" height="485" fill="white"/>
</clipPath>
</defs>
</svg>
